Coordinates
nRows=10
nColumns=38

# SIMM Motion File Header:
name Coordinates
datacolumns 38
datarows 10
otherdata 1
range 1.86649999999999980000 1.87549999999999990000

Units are S.I. units (second, meters, Newtons, ...)
Angles are in degrees.

endheader
time	pelvis_tilt	pelvis_list	pelvis_rotation	pelvis_tx	pelvis_ty	pelvis_tz	hip_flexion_r	hip_adduction_r	hip_rotation_r	knee_angle_r	ankle_angle_r	subtalar_angle_r	mtp_angle_r	hip_flexion_l	hip_adduction_l	hip_rotation_l	knee_angle_l	ankle_angle_l	subtalar_angle_l	mtp_angle_l	lumbar_extension	lumbar_bending	lumbar_rotation	arm_flex_r	arm_add_r	arm_rot_r	elbow_flex_r	pro_sup_r	wrist_flex_r	wrist_dev_r	arm_flex_l	arm_add_l	arm_rot_l	elbow_flex_l	pro_sup_l	wrist_flex_l	wrist_dev_l
      1.86649999999999980000	     -1.56027883977074900000	      3.57314049126869150000	     -1.92520860613056800000	      1.22133902080627130000	      0.96411867447731081000	     -0.30721234271154296000	     34.93620748514825900000	      0.73164127913650756000	      4.90839348444386390000	   -107.32686394421022000000	     12.46500888430534500000	     -0.00000000000018247871	      0.00000000000037621698	      3.75123552561986350000	     13.22079820890979600000	      4.56987923854931480000	    -34.33814562019335900000	     22.62025862505619100000	      0.00000000000000172314	      0.00000000000012758211	    -18.20189092726979000000	     -3.53273481895150400000	    -12.73327095841461600000	    -30.95057564921918200000	    -16.16316537503128700000	     -1.44343364018564710000	    110.30372210836305000000	     99.52224342456104000000	     -0.00000000000000370438	     -0.00000000000000205592	    -12.83275199942710600000	    -15.17426613453778600000	    -11.47856518403554000000	    122.05550825089931000000	    100.37958386410233000000	     -0.00000000000000311059	      0.00000000000003819001
      1.86749999999999990000	     -1.61617134379650480000	      3.45168945822208920000	     -1.97434468664482310000	      1.22157776939962170000	      0.96472462255979996000	     -0.30713529873499412000	     35.26437666454617700000	      0.88739993127489702000	      4.86309102796857480000	   -106.99923995052993000000	     12.56101654131519900000	     -0.00000000000018285646	      0.00000000000037719388	      3.34899501579611460000	     13.08647596367738300000	      4.68882567919905660000	    -33.95887513696956700000	     22.41541951715298700000	      0.00000000000000164785	      0.00000000000012754577	    -18.09612240053656900000	     -3.38877124167946600000	    -12.75443718778971900000	    -31.20297364904099200000	    -16.20429023579292500000	     -1.54224903543730150000	    110.52492329698647000000	     99.56490043990301300000	     -0.00000000000000372574	     -0.00000000000000198330	    -12.70243215308963500000	    -15.16194532133951800000	    -11.32521774882956400000	    122.17660129201630000000	    100.21125737498573000000	     -0.00000000000000313488	      0.00000000000003826853
      1.86849999999999980000	     -1.67264659330166590000	      3.32726587201221410000	     -2.02246996852875240000	      1.22182236484672080000	      0.96533564097742763000	     -0.30705931889064719000	     35.58792744527200100000	      1.04473241713824040000	      4.81330862318139730000	   -106.66336639938564000000	     12.65558709409409500000	     -0.00000000000018323375	      0.00000000000037817169	      2.94646776123601750000	     12.94837947763660100000	      4.80821824921428750000	    -33.57624663437108100000	     22.20180284713247300000	      0.00000000000000160907	      0.00000000000012748900	    -17.98964805279279100000	     -3.24094003822153940000	    -12.77238107176867600000	    -31.45801383403467700000	    -16.24404078266219600000	     -1.64418871304671230000	    110.74598425358145000000	     99.60691737862734400000	     -0.00000000000000374695	     -0.00000000000000190978	    -12.57133265118592100000	    -15.15071925119702600000	    -11.16600272450360100000	    122.29626892156239000000	    100.03927415760997000000	     -0.00000000000000315914	      0.00000000000003834375
      1.86949999999999990000	     -1.72967734187419840000	      3.19987264055194400000	     -2.06957663714067010000	      1.22207262364142500000	      0.96595158147667315000	     -0.30698438524588367000	     35.90682249880807600000	      1.20361165777694490000	      4.75908940699114420000	   -106.31930072575841000000	     12.74859330135182100000	     -0.00000000000018360996	      0.00000000000037914996	      2.54379646508372750000	     12.80649186762615500000	      4.92791626160049480000	    -33.19049172950803200000	     21.97934887216783700000	      0.00000000000000155105	      0.00000000000012747521	    -17.88254396032130000000	     -3.08923643381390440000	    -12.78721953086009000000	    -31.71559738011436700000	    -16.28241658365295300000	     -1.74913199549850940000	    110.96689025670078000000	     99.64813897676491200000	     -0.00000000000000376822	     -0.00000000000000183594	    -12.43957765698220900000	    -15.14053358098632000000	    -11.00116597700052500000	    122.41454005302087000000	     99.86413256636149100000	     -0.00000000000000318499	      0.00000000000003841205
      1.87049999999999980000	     -1.78723536139763390000	      3.06951972179218700000	     -2.11565557925428750000	      1.22232835859066190000	      0.96657229653327426000	     -0.30691048094648971000	     36.22102586884917500000	      1.36400633850027360000	      4.70048365485023470000	   -105.96710135763492000000	     12.83990841196003700000	     -0.00000000000018398821	      0.00000000000038012806	      2.14112293218262460000	     12.66080555769803000000	      5.04777720304458290000	    -32.80184601365993300000	     21.74799550502683200000	      0.00000000000000145683	      0.00000000000012748581	    -17.77488686258628200000	     -2.93366386918557700000	    -12.79907528122482100000	    -31.97562200281221900000	    -16.31941748939879100000	     -1.85695656182600800000	    111.18762843347642000000	     99.68841139439510400000	     -0.00000000000000379022	     -0.00000000000000176302	    -12.30729224968483300000	    -15.13133672862047200000	    -10.83095883491966700000	    122.53144733306944000000	     99.68633040050338000000	     -0.00000000000000320965	      0.00000000000003847059
      1.87149999999999990000	     -1.84529135642801820000	      2.93622432191454270000	     -2.16069641116548760000	      1.22258937956624040000	      0.96719763950140802000	     -0.30683759058291199000	     36.53050277493542100000	      1.52588068040501020000	      4.63754890388686740000	   -105.60682763337792000000	     12.92940697319924600000	     -0.00000000000018437693	      0.00000000000038110817	      1.73858744268782960000	     12.51132264249318200000	      5.16765737114352230000	    -32.41054805965807600000	     21.50767878302204400000	      0.00000000000000134932	      0.00000000000012749941	    -17.66675401974771000000	     -2.77423423731627010000	    -12.80807631735825000000	    -32.23798225077901200000	    -16.35504334551636800000	     -1.96753911042547740000	    111.40818739649428000000	     99.72758241361096100000	     -0.00000000000000381216	     -0.00000000000000169161	    -12.17460173337331900000	    -15.12308023009845000000	    -10.65563704287809600000	    122.64702656549341000000	     99.50636246420438600000	     -0.00000000000000323230	      0.00000000000003853836
      1.87249999999999980000	     -1.90381492338144160000	      2.80001095079618790000	     -2.20468735366994470000	      1.22285549416109180000	      0.96782746470935099000	     -0.30676570080913218000	     36.83521939680649400000	      1.68919419812192450000	      4.57034976645386410000	   -105.23853969449424000000	     13.01696560002342900000	     -0.00000000000018477737	      0.00000000000038208763	      1.33632830415475580000	     12.35805507232060700000	      5.28741261538065110000	    -32.01683863554266200000	     21.25833321493352200000	      0.00000000000000120901	      0.00000000000012753117	    -17.55822305529847300000	     -2.61096791380074620000	    -12.81435553230055800000	    -32.50256982104903600000	    -16.38929379447790800000	     -2.08075587190573690000	    111.62855694401861000000	     99.76550161605696600000	     -0.00000000000000383429	     -0.00000000000000161941	    -12.04163106385117700000	    -15.11571898208030400000	    -10.47545979028780200000	    122.76131620464180000000	     99.32471849229099800000	     -0.00000000000000325435	      0.00000000000003857986
      1.87349999999999990000	     -1.96277454316068870000	      2.66091134939404970000	     -2.24761504980180990000	      1.22312650825877790000	      0.96846162751263243000	     -0.30669480106444169000	     37.13514264956651100000	      1.85390148175370360000	      4.49895752231690960000	   -104.86229836651934000000	     13.10246369128501900000	     -0.00000000000018518336	      0.00000000000038306684	      0.93448156230839263000	     12.20102466423402500000	      5.40689909545592950000	    -31.62096008429990900000	     20.99989205164003900000	      0.00000000000000103820	      0.00000000000012761269	    -17.44937178890550900000	     -2.44389362435975200000	    -12.81805039007779500000	    -32.76927389636088600000	    -16.42216817058484300000	     -2.19648297371505490000	    111.84872782736363000000	     99.80202053852163100000	     -0.00000000000000385643	     -0.00000000000000154802	    -11.90850438951008200000	    -15.10921136849084900000	    -10.29068881455388300000	    122.87435691773530000000	     99.14188144242892500000	     -0.00000000000000327543	      0.00000000000003859343
      1.87449999999999980000	     -2.02213756348238860000	      2.51896440759427960000	     -2.28946453981287550000	      1.22340222661029370000	      0.96909998431978284000	     -0.30662488406864352000	     37.43023997473373000000	      2.01995206288534530000	      4.42344980799461670000	   -104.47816505613375000000	     13.18578410759517400000	     -0.00000000000018559107	      0.00000000000038404498	      0.53318070511581361000	     12.04026307916512400000	      5.52597390049025880000	    -31.22315564549685300000	     20.73228792148732300000	      0.00000000000000087574	      0.00000000000012766046	    -17.34027807316476800000	     -2.27304834066060040000	    -12.81930245575016000000	    -33.03798148971312500000	    -16.45366542553670900000	     -2.31459677439492630000	    112.06869154124888000000	     99.83699281990948300000	     -0.00000000000000387817	     -0.00000000000000147676	    -11.77534461680579300000	    -15.10351935184338100000	    -10.10158751865723100000	    122.98619116598186000000	     98.95832587561395100000	     -0.00000000000000329559	      0.00000000000003859884
      1.87549999999999990000	     -2.08187016519861730000	      2.37421610479023300000	     -2.33021939681221910000	      1.22368245343593030000	      0.96974239260243034000	     -0.30655594608109754000	     37.72047914855912900000	      2.18729035306164520000	      4.34391044502642300000	   -104.08620166579551000000	     13.26681382269550200000	     -0.00000000000018600954	      0.00000000000038502187	      0.13255633625065963000	     11.87581180855079100000	      5.64449552088669470000	    -30.82366870797958900000	     20.45545348746269500000	      0.00000000000000074116	      0.00000000000012762683	    -17.23101963679600200000	     -2.09847724066480310000	    -12.81825678112887200000	    -33.30857778944669400000	    -16.48378406222025600000	     -2.43497419997350620000	    112.28844011941784000000	     99.87027434528604900000	     -0.00000000000000389991	     -0.00000000000000140706	    -11.64227297397509100000	    -15.09860855643639400000	     -9.90842008657366340000	    123.09686278872834000000	     98.77451634170614600000	     -0.00000000000000331530	      0.00000000000003860496
